<?xml version="1.0" encoding="UTF-8"?>
<svg id="Layer_2" data-name="Layer 2" xmlns="http://www.w3.org/2000/svg" xmlns:xlink="http://www.w3.org/1999/xlink" viewBox="0 0 496.78 262.68">
  <defs>
    <style>
      .cls-1 {
        fill: url(#linear-gradient);
      }

      .cls-1, .cls-2 {
        stroke-width: 0px;
      }

      .cls-2 {
        fill: url(#linear-gradient-2);
      }
    </style>
    <linearGradient id="linear-gradient" x1="97.86" y1="260.56" x2="397.19" y2="-38.77" gradientUnits="userSpaceOnUse">
      <stop offset="0" stop-color="#80b743"/>
      <stop offset="1" stop-color="#47803e"/>
    </linearGradient>
    <linearGradient id="linear-gradient-2" x1="129.59" y1="-74.35" x2="381.5" y2="177.56" gradientUnits="userSpaceOnUse">
      <stop offset="0" stop-color="#47803e"/>
      <stop offset="1" stop-color="#80b743"/>
    </linearGradient>
  </defs>
  <g id="Layer_1-2" data-name="Layer 1">
    <g>
      <path class="cls-1" d="m496.09,62.97s0,0,0,0c-.44-.65-.8-1.38-1.34-1.94-18.39-19.1-36.87-38.12-55.14-57.35-3.18-3.35-6.23-4.29-10.69-3.3-29.83,6.64-201.75,43.94-257.76,56.47-5.63,1.26-8.85-.2-12.41-4.01-11.15-11.93-22.56-23.61-33.83-35.43-1.93-2.03-3.78-2.83-6.8-2.16-32.82,7.35-65.69,14.51-98.53,21.73-1.08.24-2.23.5-2.81,1.65-2.33,1.56-1.83,4.1-2.11,6.32C10.29,79.1,0,157.87,0,157.92c0,.16,71.5,74.56,96.94,101.71,2.51,2.68,4.87,3.56,8.48,2.79,98.39-20.99,344.22-73.29,368.78-78.32,5.01-1.03,7.6-2.72,8.3-8.5,4.06-33.5,8.69-66.93,13.01-100.4.52-4.03,2.19-8.07.57-12.22Z"/>
      <path class="cls-2" d="m16.79,38.63c.58-1.15,1.73-1.41,2.81-1.65,32.85-7.23,65.71-14.39,98.53-21.74,3.02-.68,4.87.13,6.8,2.16,11.26,11.82,22.68,23.5,33.83,35.43,3.56,3.81,6.78,5.26,12.41,4.01,56.01-12.53,112.12-24.66,168.2-36.89,29.86-6.51,59.73-12.94,89.56-19.58,4.47-.99,7.51-.06,10.7,3.3,18.26,19.23,36.74,38.24,55.13,57.35.54.56.9,1.3,1.34,1.94-5.31,2.97-11.36,3.3-17.1,4.52-56.1,11.92-112.24,23.67-168.37,35.48-62.76,13.21-125.53,26.38-188.27,39.71-4.61.98-7.74.23-11.06-3.31-31.03-32.99-62.25-65.82-93.39-98.71-.51-.54-.75-1.34-1.12-2.03Z"/>
    </g>
  </g>
</svg>