<svg width="21" height="21" viewBox="0 0 21 21" fill="none" xmlns="http://www.w3.org/2000/svg">
<path d="M6.08849 18.4957C5.67293 18.4957 5.31793 18.3486 5.02349 18.0543C4.72918 17.7598 4.58203 17.4048 4.58203 16.9893V9.16885C4.58203 8.7533 4.72918 8.3983 5.02349 8.10385C5.31793 7.80955 5.67293 7.66239 6.08849 7.66239H7.08203V5.99573C7.08203 4.95517 7.44689 4.07003 8.17661 3.34031C8.90634 2.61059 9.79148 2.24573 10.832 2.24573C11.8726 2.24573 12.7577 2.61059 13.4874 3.34031C14.2172 4.07003 14.582 4.95517 14.582 5.99573V7.66239H15.5756C15.9911 7.66239 16.3461 7.80955 16.6406 8.10385C16.9349 8.3983 17.082 8.7533 17.082 9.16885V16.9893C17.082 17.4048 16.9349 17.7598 16.6406 18.0543C16.3461 18.3486 15.9911 18.4957 15.5756 18.4957H6.08849ZM6.08849 17.2457H15.5756C15.6504 17.2457 15.7119 17.2217 15.7599 17.1736C15.808 17.1256 15.832 17.0641 15.832 16.9893V9.16885C15.832 9.09399 15.808 9.03253 15.7599 8.98448C15.7119 8.93642 15.6504 8.91239 15.5756 8.91239H6.08849C6.01363 8.91239 5.95217 8.93642 5.90411 8.98448C5.85606 9.03253 5.83203 9.09399 5.83203 9.16885V16.9893C5.83203 17.0641 5.85606 17.1256 5.90411 17.1736C5.95217 17.2217 6.01363 17.2457 6.08849 17.2457ZM10.832 14.5374C11.2369 14.5374 11.5812 14.3956 11.8649 14.112C12.1486 13.8282 12.2904 13.4839 12.2904 13.0791C12.2904 12.6742 12.1486 12.3299 11.8649 12.0461C11.5812 11.7625 11.2369 11.6207 10.832 11.6207C10.4272 11.6207 10.0829 11.7625 9.79912 12.0461C9.5155 12.3299 9.3737 12.6742 9.3737 13.0791C9.3737 13.4839 9.5155 13.8282 9.79912 14.112C10.0829 14.3956 10.4272 14.5374 10.832 14.5374ZM8.33203 7.66239H13.332V5.99573C13.332 5.30128 13.089 4.71101 12.6029 4.22489C12.1168 3.73878 11.5265 3.49573 10.832 3.49573C10.1376 3.49573 9.54731 3.73878 9.0612 4.22489C8.57509 4.71101 8.33203 5.30128 8.33203 5.99573V7.66239Z" fill="black"/>
</svg>
