<svg width="30" height="38" viewBox="0 0 30 38" fill="none" xmlns="http://www.w3.org/2000/svg">
<path d="M9 30.5H21C21.4257 30.5 21.782 30.3563 22.069 30.069C22.3563 29.782 22.5 29.4257 22.5 29C22.5 28.5743 22.3563 28.218 22.069 27.931C21.782 27.6437 21.4257 27.5 21 27.5H9C8.57433 27.5 8.218 27.6437 7.931 27.931C7.64367 28.218 7.5 28.5743 7.5 29C7.5 29.4257 7.64367 29.782 7.931 30.069C8.218 30.3563 8.57433 30.5 9 30.5ZM9 22.5H21C21.4257 22.5 21.782 22.3563 22.069 22.069C22.3563 21.782 22.5 21.4257 22.5 21C22.5 20.5743 22.3563 20.218 22.069 19.931C21.782 19.6437 21.4257 19.5 21 19.5H9C8.57433 19.5 8.218 19.6437 7.931 19.931C7.64367 20.218 7.5 20.5743 7.5 21C7.5 21.4257 7.64367 21.782 7.931 22.069C8.218 22.3563 8.57433 22.5 9 22.5ZM3.6155 38C2.60517 38 1.75 37.65 1.05 36.95C0.35 36.25 0 35.3948 0 34.3845V3.6155C0 2.60517 0.35 1.75 1.05 1.05C1.75 0.35 2.60517 0 3.6155 0H18.004C18.486 0 18.9495 0.0936664 19.3945 0.281C19.8392 0.468 20.2257 0.725668 20.554 1.054L28.946 9.446C29.2743 9.77433 29.532 10.1608 29.719 10.6055C29.9063 11.0505 30 11.514 30 11.996V34.3845C30 35.3948 29.65 36.25 28.95 36.95C28.25 37.65 27.3948 38 26.3845 38H3.6155ZM18 10.192V3H3.6155C3.4615 3 3.3205 3.06417 3.1925 3.1925C3.06417 3.3205 3 3.4615 3 3.6155V34.3845C3 34.5385 3.06417 34.6795 3.1925 34.8075C3.3205 34.9358 3.4615 35 3.6155 35H26.3845C26.5385 35 26.6795 34.9358 26.8075 34.8075C26.9358 34.6795 27 34.5385 27 34.3845V12H19.808C19.2923 12 18.8622 11.8275 18.5175 11.4825C18.1725 11.1378 18 10.7077 18 10.192Z" fill="#3F4457"/>
</svg>
