<svg width="21" height="21" viewBox="0 0 21 21" fill="none" xmlns="http://www.w3.org/2000/svg">
<path d="M10.1676 18.3376C9.08223 18.3376 8.05792 18.1295 7.09473 17.7134C6.13153 17.2973 5.29153 16.7308 4.57473 16.0139C3.85778 15.297 3.29125 14.457 2.87514 13.4939C2.45903 12.5307 2.25098 11.5064 2.25098 10.4209C2.25098 9.32691 2.45903 8.30045 2.87514 7.34156C3.29125 6.38267 3.85778 5.54483 4.57473 4.82802C5.29153 4.11108 6.13153 3.54455 7.09473 3.12844C8.05792 2.71233 9.08223 2.50427 10.1676 2.50427C11.2617 2.50427 12.2881 2.71233 13.247 3.12844C14.2059 3.54455 15.0438 4.11108 15.7606 4.82802C16.4775 5.54483 17.044 6.38267 17.4601 7.34156C17.8763 8.30045 18.0843 9.32691 18.0843 10.4209C18.0843 11.5064 17.8763 12.5307 17.4601 13.4939C17.044 14.457 16.4775 15.297 15.7606 16.0139C15.0438 16.7308 14.2059 17.2973 13.247 17.7134C12.2881 18.1295 11.2617 18.3376 10.1676 18.3376ZM10.1676 17.0699C10.5929 16.5059 10.9508 15.937 11.2414 15.3632C11.5319 14.7895 11.7686 14.1623 11.9514 13.4818H8.38389C8.57737 14.1837 8.81674 14.8216 9.10202 15.3953C9.38716 15.9691 9.74236 16.5273 10.1676 17.0699ZM8.55389 16.8407C8.23445 16.3824 7.94757 15.8614 7.69327 15.2776C7.43896 14.6937 7.24132 14.0951 7.10035 13.4818H4.27348C4.71362 14.3472 5.30389 15.0743 6.04431 15.663C6.78473 16.2516 7.62125 16.6442 8.55389 16.8407ZM11.7814 16.8407C12.714 16.6442 13.5506 16.2516 14.291 15.663C15.0314 15.0743 15.6217 14.3472 16.0618 13.4818H13.2349C13.0672 14.1004 12.8561 14.7016 12.6018 15.2855C12.3476 15.8694 12.0742 16.3878 11.7814 16.8407ZM3.74931 12.2318H6.84723C6.79487 11.922 6.75688 11.6184 6.73327 11.3207C6.7098 11.0232 6.69806 10.7233 6.69806 10.4209C6.69806 10.1186 6.7098 9.81865 6.73327 9.52115C6.75688 9.22351 6.79487 8.91983 6.84723 8.61011H3.74931C3.66917 8.89316 3.60778 9.18747 3.56514 9.49302C3.52237 9.79858 3.50098 10.1079 3.50098 10.4209C3.50098 10.734 3.52237 11.0433 3.56514 11.3489C3.60778 11.6544 3.66917 11.9487 3.74931 12.2318ZM8.09702 12.2318H12.2383C12.2905 11.922 12.3284 11.6211 12.352 11.3289C12.3755 11.0366 12.3872 10.734 12.3872 10.4209C12.3872 10.1079 12.3755 9.80524 12.352 9.51302C12.3284 9.2208 12.2905 8.91983 12.2383 8.61011H8.09702C8.0448 8.91983 8.00688 9.2208 7.98327 9.51302C7.9598 9.80524 7.94806 10.1079 7.94806 10.4209C7.94806 10.734 7.9598 11.0366 7.98327 11.3289C8.00688 11.6211 8.0448 11.922 8.09702 12.2318ZM13.4881 12.2318H16.586C16.6661 11.9487 16.7275 11.6544 16.7701 11.3489C16.8129 11.0433 16.8343 10.734 16.8343 10.4209C16.8343 10.1079 16.8129 9.79858 16.7701 9.49302C16.7275 9.18747 16.6661 8.89316 16.586 8.61011H13.4881C13.5404 8.91983 13.5784 9.22351 13.602 9.52115C13.6255 9.81865 13.6372 10.1186 13.6372 10.4209C13.6372 10.7233 13.6255 11.0232 13.602 11.3207C13.5784 11.6184 13.5404 11.922 13.4881 12.2318ZM13.2349 7.36011H16.0618C15.6164 6.48399 15.0301 5.75691 14.3031 5.17886C13.576 4.60094 12.7354 4.20566 11.7814 3.99302C12.1008 4.47802 12.385 5.00851 12.6339 5.58448C12.8829 6.16031 13.0833 6.75219 13.2349 7.36011ZM8.38389 7.36011H11.9514C11.7579 6.66344 11.5146 6.02156 11.2214 5.43448C10.9281 4.8474 10.5768 4.29323 10.1676 3.77198C9.75848 4.29323 9.40723 4.8474 9.11389 5.43448C8.8207 6.02156 8.57737 6.66344 8.38389 7.36011ZM4.27348 7.36011H7.10035C7.25202 6.75219 7.45236 6.16031 7.70139 5.58448C7.95028 5.00851 8.23445 4.47802 8.55389 3.99302C7.59445 4.20566 6.75257 4.60233 6.02827 5.18302C5.30382 5.76358 4.71889 6.48927 4.27348 7.36011Z" fill="black"/>
</svg>
