<svg width="52" height="38" viewBox="0 0 52 38" fill="none" xmlns="http://www.w3.org/2000/svg">
<path d="M25.9153 7.00271H19.6181L23.6043 0.49646H18.4162L14.9728 7.02615C15.0196 8.81865 15.6328 10.2811 16.3406 11.2477H26.175C27.0243 11.2477 27.6375 11.4596 28.0612 11.9321C28.4625 12.3802 28.5796 12.9465 28.5796 13.6065V15.4224H12.4256V13.3702C12.4256 11.0827 12.119 9.40833 10.9162 8.01709C9.7134 6.62583 7.80277 6.05958 5.39715 6.05958H4.5009V10.3046H5.7984C6.71809 10.3046 7.2609 10.5877 7.66121 11.1061C8.01465 11.5777 8.18059 12.1674 8.18059 12.9924V15.4215H0.327148V19.6665H32.8246V13.9355C32.8246 12.0015 32.3765 10.044 31.3153 8.84115C30.089 7.47334 28.3434 7.00177 25.9143 7.00177" fill="#3F4457"/>
<path d="M46.9775 11.6218V15.4224H40.3241L40.3597 3.36896H37.6691L40.3653 1.2474L40.3682 0.49646H36.1232L36.0791 19.6674H51.2225V10.2305L46.9775 11.6218Z" fill="#3F4457"/>
<path d="M12.1207 29.8466C11.4682 30.4091 11.0866 31.206 10.917 32.1838C10.9029 32.2607 10.8916 32.3394 10.8795 32.4191C10.811 32.9132 10.811 33.4157 10.8795 33.9097C10.8907 33.9894 10.902 34.0682 10.917 34.1451C11.0866 35.1229 11.4682 35.9188 12.1207 36.4841C13.0516 37.2894 14.1757 37.4947 15.7095 37.4947H16.3076L17.0848 36.3294V37.4947H19.931V28.8332H15.7104C14.1766 28.8332 13.0526 29.0385 12.1216 29.8457M17.0838 34.6494H15.4563C14.9032 34.6494 14.5085 34.5397 14.1926 34.3007C13.9198 34.0907 13.7445 33.8235 13.6816 33.4222C13.6545 33.2507 13.6545 33.0763 13.6816 32.9066C13.7445 32.5054 13.9198 32.2354 14.1926 32.0254C14.5085 31.7882 14.9032 31.6785 15.4563 31.6785H17.0838V34.6485V34.6494Z" fill="#3F4457"/>
<path d="M22.2165 29.8466C21.564 30.4091 21.1843 31.206 21.0127 32.1838C20.9996 32.2607 20.9874 32.3394 20.9771 32.4191C20.9087 32.9132 20.9087 33.4157 20.9771 33.9097C20.9874 33.9894 20.9996 34.0682 21.0127 34.1451C21.1843 35.1229 21.564 35.9188 22.2165 36.4841C23.1502 37.2894 24.2715 37.4947 25.8043 37.4947H26.4165L27.1937 36.3294V37.4947H30.0249V28.8332H25.8043C24.2705 28.8332 23.1502 29.0385 22.2165 29.8457M27.1796 34.6494H25.5521C24.998 34.6494 24.6043 34.5397 24.2884 34.3007C24.0155 34.0907 23.8402 33.8235 23.7774 33.4222C23.7502 33.2507 23.7502 33.0763 23.7765 32.9066C23.8412 32.5054 24.0165 32.2354 24.2893 32.0254C24.6052 31.7882 24.999 31.6785 25.553 31.6785H27.1805V34.6485L27.1796 34.6494Z" fill="#3F4457"/>
<path d="M48.37 24.0871V28.8327H46.9938C45.4591 28.8327 44.336 29.038 43.4022 29.8442C42.7488 30.4096 42.3682 31.2055 42.1975 32.1861C42.1844 32.263 42.1722 32.3417 42.161 32.4214C42.0935 32.9155 42.0935 33.4189 42.161 33.913C42.1722 33.9927 42.1844 34.0714 42.1975 34.1492C42.3682 35.1289 42.7488 35.9258 43.4022 36.4892C44.336 37.2974 45.4591 37.5027 46.9938 37.5027H51.2191V24.0861H48.37V24.0871ZM48.37 34.6555H46.7407C46.1875 34.6555 45.7919 34.5439 45.475 34.3067C45.2022 34.0967 45.0269 33.8277 44.9632 33.4255C44.936 33.2549 44.936 33.0805 44.9632 32.9099C45.0269 32.5077 45.2022 32.2396 45.475 32.0296C45.791 31.7924 46.1866 31.6808 46.7407 31.6808H48.37V34.6546V34.6555Z" fill="#3F4457"/>
<path d="M41.69 25.7947H38.2129L34.7057 30.08V24.095H31.8604V37.4975H34.7057V34.4543L35.5663 33.3856L38.93 37.4975H42.4082L37.4675 31.0287L41.69 25.7947Z" fill="#3F4457"/>
<path d="M6.38597 34.6517H3.14316L3.16754 26.5723L3.17129 25.1501L3.17316 24.4123H0.297852V37.497H9.23129V32.1035H6.38597V34.6517Z" fill="#3F4457"/>
<path d="M3.16871 26.5904V28.0857L7.72965 26.5248V28.712L1.38184 30.7923V27.2148L3.16871 26.5904Z" fill="#81C045"/>
</svg>
 