<svg width="21" height="21" viewBox="0 0 21 21" fill="none" xmlns="http://www.w3.org/2000/svg">
<path d="M5.25548 17.6625C4.83451 17.6625 4.47819 17.5167 4.18652 17.225C3.89486 16.9333 3.74902 16.577 3.74902 16.1561V5.00231C3.74902 4.58134 3.89486 4.22502 4.18652 3.93335C4.47819 3.64168 4.83451 3.49585 5.25548 3.49585H10.2155C10.3927 3.49585 10.5412 3.55571 10.6609 3.67543C10.7805 3.79502 10.8403 3.94349 10.8403 4.12085C10.8403 4.29821 10.7805 4.44668 10.6609 4.56627C10.5412 4.68599 10.3927 4.74585 10.2155 4.74585H5.25548C5.19132 4.74585 5.13257 4.77259 5.07923 4.82606C5.02576 4.87939 4.99902 4.93814 4.99902 5.00231V16.1561C4.99902 16.2202 5.02576 16.279 5.07923 16.3323C5.13257 16.3858 5.19132 16.4125 5.25548 16.4125H10.2155C10.3927 16.4125 10.5412 16.4724 10.6609 16.5921C10.7805 16.7117 10.8403 16.8602 10.8403 17.0375C10.8403 17.2149 10.7805 17.3633 10.6609 17.4829C10.5412 17.6027 10.3927 17.6625 10.2155 17.6625H5.25548ZM15.5134 11.2042H9.03757C8.8602 11.2042 8.71166 11.1443 8.59194 11.0246C8.47236 10.905 8.41257 10.7565 8.41257 10.5792C8.41257 10.4018 8.47236 10.2533 8.59194 10.1338C8.71166 10.014 8.8602 9.95418 9.03757 9.95418H15.5134L13.9109 8.35168C13.7955 8.23627 13.7365 8.0955 13.7338 7.92939C13.7312 7.76328 13.7902 7.61557 13.9109 7.48627C14.0316 7.35696 14.178 7.29015 14.3501 7.28585C14.522 7.28168 14.6726 7.34418 14.8019 7.47335L17.3805 10.0519C17.531 10.2026 17.6063 10.3783 17.6063 10.5792C17.6063 10.78 17.531 10.9558 17.3805 11.1065L14.8019 13.685C14.6781 13.8089 14.5309 13.87 14.3605 13.8683C14.1901 13.8668 14.0402 13.8014 13.9109 13.6721C13.7902 13.5428 13.732 13.3943 13.7363 13.2267C13.7405 13.0589 13.803 12.9147 13.9238 12.794L15.5134 11.2042Z" fill="#BA3939"/>
</svg>
