<svg width="48" height="48" viewBox="0 0 48 48" fill="none" xmlns="http://www.w3.org/2000/svg">
<path d="M14.1925 27.6155H16.8845C17.1255 27.6155 17.355 27.5718 17.573 27.4845C17.791 27.3975 17.9935 27.2603 18.1805 27.073L27.9075 17.346C28.1435 17.0973 28.3205 16.823 28.4385 16.523C28.5565 16.223 28.6155 15.9282 28.6155 15.6385C28.6155 15.3488 28.5513 15.0642 28.423 14.7845C28.2947 14.5052 28.1228 14.2412 27.9075 13.9925L26.0885 12.0925C25.8525 11.8565 25.5865 11.6795 25.2905 11.5615C24.9942 11.4435 24.691 11.3845 24.381 11.3845C24.091 11.3845 23.796 11.4435 23.496 11.5615C23.196 11.6795 22.9217 11.8565 22.673 12.0925L12.927 21.8195C12.7397 22.0065 12.6025 22.209 12.5155 22.427C12.4282 22.645 12.3845 22.8745 12.3845 23.1155V25.8075C12.3845 26.3228 12.557 26.753 12.902 27.098C13.247 27.443 13.6772 27.6155 14.1925 27.6155ZM14.769 25.231V23.331L20.7425 17.3575L21.704 18.296L22.623 19.277L16.669 25.231H14.769ZM21.704 18.296L22.623 19.277L20.7425 17.3575L21.704 18.296ZM22.9845 27.6155H34.1155C34.5412 27.6155 34.8975 27.4718 35.1845 27.1845C35.4718 26.8975 35.6155 26.5412 35.6155 26.1155C35.6155 25.6898 35.4718 25.3333 35.1845 25.046C34.8975 24.759 34.5412 24.6155 34.1155 24.6155H25.9845L22.9845 27.6155ZM12.077 35L8.073 39.0035C7.504 39.5728 6.8495 39.7018 6.1095 39.3905C5.36983 39.0788 5 38.5178 5 37.7075V8.6155C5 7.60517 5.35 6.75 6.05 6.05C6.75 5.35 7.60517 5 8.6155 5H39.3845C40.3948 5 41.25 5.35 41.95 6.05C42.65 6.75 43 7.60517 43 8.6155V31.3845C43 32.3948 42.65 33.25 41.95 33.95C41.25 34.65 40.3948 35 39.3845 35H12.077ZM10.8 32H39.3845C39.5385 32 39.6795 31.9358 39.8075 31.8075C39.9358 31.6795 40 31.5385 40 31.3845V8.6155C40 8.4615 39.9358 8.3205 39.8075 8.1925C39.6795 8.06417 39.5385 8 39.3845 8H8.6155C8.4615 8 8.3205 8.06417 8.1925 8.1925C8.06417 8.3205 8 8.4615 8 8.6155V34.7695L10.8 32Z" fill="#3F4457"/>
</svg>
