<svg width="42" height="31" viewBox="0 0 42 31" fill="none" xmlns="http://www.w3.org/2000/svg">
<path d="M19.9587 14.6269L16.2805 18.293C16.0923 18.4878 15.8571 18.5852 15.5748 18.5852C15.2922 18.5852 15.0495 18.4837 14.8467 18.2805C14.6248 18.0857 14.5206 17.8401 14.5342 17.5436C14.5474 17.247 14.6515 17.0014 14.8467 16.8066L19.8222 11.8305C20.159 11.4941 20.5517 11.3258 21.0003 11.3258C21.4489 11.3258 21.8416 11.4941 22.1785 11.8305L27.154 16.8066C27.3491 17.0014 27.4554 17.2436 27.4727 17.5331C27.4901 17.8227 27.3838 18.0729 27.154 18.2837C26.9592 18.4767 26.7156 18.5686 26.4232 18.5592C26.1305 18.5498 25.8828 18.4477 25.68 18.2529L22.042 14.6269V26.718C22.042 27.0389 22.1755 27.3328 22.4425 27.5998C22.7095 27.8668 23.0035 28.0003 23.3243 28.0003H34.542C36.0003 28.0003 37.233 27.4969 38.2399 26.4899C39.2469 25.483 39.7503 24.2503 39.7503 22.792C39.7503 21.3337 39.2469 20.101 38.2399 19.0941C37.233 18.0871 36.0003 17.5837 34.542 17.5837H31.417V13.417C31.417 10.535 30.4014 8.07845 28.3701 6.0472C26.3389 4.01595 23.8823 3.00033 21.0003 3.00033C18.1184 3.00033 15.6618 4.01595 13.6305 6.0472C11.5993 8.07845 10.5837 10.535 10.5837 13.417H9.46178C7.5281 13.417 5.84269 14.1288 4.40553 15.5524C2.96873 16.976 2.25033 18.6948 2.25033 20.7087C2.25033 22.7225 2.96213 24.4413 4.38574 25.8649C5.80935 27.2885 7.5281 28.0003 9.54199 28.0003H13.7087C14.0038 28.0003 14.2512 28.1003 14.4508 28.3003C14.6505 28.5003 14.7503 28.7481 14.7503 29.0436C14.7503 29.339 14.6505 29.5863 14.4508 29.7852C14.2512 29.9842 14.0038 30.0837 13.7087 30.0837H9.54199C6.94303 30.0837 4.73088 29.1798 2.90553 27.3722C1.07984 25.5649 0.166992 23.3557 0.166992 20.7446C0.166992 18.2769 1.0163 16.1375 2.71491 14.3264C4.41387 12.5156 6.40918 11.542 8.70085 11.4055C9.16821 8.37151 10.5637 5.86491 12.8873 3.88574C15.2109 1.90658 17.9153 0.916992 21.0003 0.916992C24.4826 0.916992 27.4364 2.12984 29.8618 4.55553C32.2875 6.98088 33.5003 9.9347 33.5003 13.417V15.5003H34.7826C36.7778 15.5646 38.4517 16.297 39.8045 17.6977C41.1573 19.0988 41.8337 20.7969 41.8337 22.792C41.8337 24.8354 41.1425 26.5614 39.7602 27.9701C38.3779 29.3791 36.6653 30.0837 34.6222 30.0837H23.3243C22.3653 30.0837 21.5646 29.7625 20.9222 29.1201C20.2798 28.4778 19.9587 27.6771 19.9587 26.718V14.6269Z" fill="#322F35"/>
</svg>
